<svg xmlns="http://www.w3.org/2000/svg" style="display:none" aria-hidden="true">
  <!-- ===== Brand emblem ===== -->
  <symbol id="i-logo" viewBox="0 0 64 64">
    <defs>
      <linearGradient id="logoOrange" x1="0" y1="0" x2="0" y2="1">
        <stop offset="0" stop-color="#FBB03B"/><stop offset="1" stop-color="#E07B00"/>
      </linearGradient>
      <linearGradient id="logoSteel" x1="0" y1="0" x2="0" y2="1">
        <stop offset="0" stop-color="#3A424E"/><stop offset="1" stop-color="#1C2027"/>
      </linearGradient>
    </defs>
    <!-- gear ring -->
    <g fill="url(#logoSteel)">
      <circle cx="32" cy="32" r="29"/>
    </g>
    <g fill="#2A313B">
      <circle cx="32" cy="32" r="24"/>
    </g>
    <!-- gear teeth -->
    <g fill="url(#logoSteel)">
      <rect x="29.5" y="1" width="5" height="7" rx="1"/>
      <rect x="29.5" y="56" width="5" height="7" rx="1"/>
      <rect x="56" y="29.5" width="7" height="5" rx="1"/>
      <rect x="1" y="29.5" width="7" height="5" rx="1"/>
      <rect x="48" y="9" width="5" height="7" rx="1" transform="rotate(45 50.5 12.5)"/>
      <rect x="11" y="48" width="5" height="7" rx="1" transform="rotate(45 13.5 51.5)"/>
      <rect x="48" y="48" width="5" height="7" rx="1" transform="rotate(-45 50.5 51.5)"/>
      <rect x="11" y="9" width="5" height="7" rx="1" transform="rotate(-45 13.5 12.5)"/>
    </g>
    <!-- shield -->
    <path d="M32 11l16 6v11c0 11-7 18-16 22-9-4-16-11-16-22V17z" fill="url(#logoOrange)"/>
    <path d="M32 15l12 4.5V28c0 8.4-5.2 14-12 17.4C25.2 42 20 36.4 20 28v-8.5z" fill="#1C2027"/>
    <!-- roof -->
    <path d="M24 27l8-6 8 6v2l-8-5.6L24 29z" fill="url(#logoOrange)"/>
    <!-- crossed wrench + hammer -->
    <g stroke="#E9EDF2" stroke-width="2.4" stroke-linecap="round" fill="none">
      <path d="M27 41l8-8"/>
      <path d="M37 41l-8-8"/>
    </g>
    <circle cx="26.5" cy="41.5" r="2.4" fill="url(#logoOrange)"/>
    <circle cx="37.5" cy="41.5" r="2.4" fill="#E9EDF2"/>
  </symbol>

  <!-- ===== UI / contact ===== -->
  <symbol id="i-phone" viewBox="0 0 24 24" fill="none" stroke="currentColor" stroke-width="2" stroke-linecap="round" stroke-linejoin="round">
    <path d="M22 16.9v3a2 2 0 0 1-2.2 2 19.8 19.8 0 0 1-8.6-3.1 19.5 19.5 0 0 1-6-6A19.8 19.8 0 0 1 2.1 4.2 2 2 0 0 1 4.1 2h3a2 2 0 0 1 2 1.7c.1.9.3 1.8.6 2.7a2 2 0 0 1-.5 2.1L8 9.8a16 16 0 0 0 6 6l1.3-1.2a2 2 0 0 1 2.1-.5c.9.3 1.8.5 2.7.6a2 2 0 0 1 1.7 2.1z"/>
  </symbol>
  <symbol id="i-whatsapp" viewBox="0 0 24 24">
    <path fill="currentColor" d="M12 2a10 10 0 0 0-8.6 15l-1.3 4.8 4.9-1.3A10 10 0 1 0 12 2zm5.8 14.2c-.2.7-1.4 1.3-2 1.4-.5.1-1.2.1-1.9-.1-.4-.1-1-.3-1.7-.6-3-1.3-4.9-4.3-5.1-4.5-.1-.2-1.2-1.5-1.2-2.9s.7-2 1-2.3c.2-.3.5-.3.7-.3h.5c.2 0 .4 0 .6.5l.8 2c.1.1.1.3 0 .5l-.4.5-.3.3c-.2.2-.3.4-.2.6.2.4.9 1.5 1.9 2.3 1.3 1.1 2.3 1.5 2.6 1.6.2.1.4.1.6-.1l.8-1c.2-.2.3-.2.6-.1l2 .9c.3.1.4.2.5.3.1.2.1.7-.1 1.4z"/>
  </symbol>
  <symbol id="i-mail" viewBox="0 0 24 24" fill="none" stroke="currentColor" stroke-width="2" stroke-linecap="round" stroke-linejoin="round">
    <rect x="2.5" y="4.5" width="19" height="15" rx="2.5"/><path d="M3 7l9 6 9-6"/>
  </symbol>
  <symbol id="i-clock" viewBox="0 0 24 24" fill="none" stroke="currentColor" stroke-width="2" stroke-linecap="round" stroke-linejoin="round">
    <circle cx="12" cy="12" r="9.5"/><path d="M12 7v5l3.5 2"/>
  </symbol>
  <symbol id="i-pin" viewBox="0 0 24 24" fill="none" stroke="currentColor" stroke-width="2" stroke-linecap="round" stroke-linejoin="round">
    <path d="M20 10c0 6-8 12-8 12s-8-6-8-12a8 8 0 0 1 16 0z"/><circle cx="12" cy="10" r="3"/>
  </symbol>
  <symbol id="i-check" viewBox="0 0 24 24" fill="none" stroke="currentColor" stroke-width="2.4" stroke-linecap="round" stroke-linejoin="round">
    <path d="M20 6L9 17l-5-5"/>
  </symbol>
  <symbol id="i-shield" viewBox="0 0 24 24" fill="none" stroke="currentColor" stroke-width="2" stroke-linecap="round" stroke-linejoin="round">
    <path d="M12 2l8 3v6c0 5-3.4 8.6-8 11-4.6-2.4-8-6-8-11V5z"/><path d="M9 12l2 2 4-4"/>
  </symbol>
  <symbol id="i-award" viewBox="0 0 24 24" fill="none" stroke="currentColor" stroke-width="2" stroke-linecap="round" stroke-linejoin="round">
    <circle cx="12" cy="8" r="6"/><path d="M8.2 13.5L7 22l5-3 5 3-1.2-8.5"/>
  </symbol>
  <symbol id="i-tag" viewBox="0 0 24 24" fill="none" stroke="currentColor" stroke-width="2" stroke-linecap="round" stroke-linejoin="round">
    <path d="M20.6 13.4L13 21a2 2 0 0 1-2.8 0l-7-7A2 2 0 0 1 2.6 12.6V4a1.4 1.4 0 0 1 1.4-1.4h8.6a2 2 0 0 1 1.4.6l6.6 6.6a2 2 0 0 1 0 2.6z"/><circle cx="7.5" cy="7.5" r="1.4" fill="currentColor" stroke="none"/>
  </symbol>
  <symbol id="i-users" viewBox="0 0 24 24" fill="none" stroke="currentColor" stroke-width="2" stroke-linecap="round" stroke-linejoin="round">
    <path d="M16 21v-2a4 4 0 0 0-4-4H6a4 4 0 0 0-4 4v2"/><circle cx="9" cy="7" r="4"/><path d="M22 21v-2a4 4 0 0 0-3-3.9M16 3.1A4 4 0 0 1 16 11"/>
  </symbol>
  <symbol id="i-arrow-right" viewBox="0 0 24 24" fill="none" stroke="currentColor" stroke-width="2" stroke-linecap="round" stroke-linejoin="round">
    <path d="M5 12h14M13 6l6 6-6 6"/>
  </symbol>
  <symbol id="i-arrow-up" viewBox="0 0 24 24" fill="none" stroke="currentColor" stroke-width="2.2" stroke-linecap="round" stroke-linejoin="round">
    <path d="M12 19V5M6 11l6-6 6 6"/>
  </symbol>
  <symbol id="i-chevron" viewBox="0 0 24 24" fill="none" stroke="currentColor" stroke-width="2" stroke-linecap="round" stroke-linejoin="round">
    <path d="M9 6l6 6-6 6"/>
  </symbol>
  <symbol id="i-star" viewBox="0 0 24 24"><path fill="currentColor" d="M12 2l2.9 6.3 6.9.8-5.1 4.7 1.4 6.8L12 17.8 5.9 20.6l1.4-6.8L2.2 9.1l6.9-.8z"/></symbol>
  <symbol id="i-facebook" viewBox="0 0 24 24"><path fill="currentColor" d="M22 12a10 10 0 1 0-11.6 9.9v-7H7.9V12h2.5V9.8c0-2.5 1.5-3.9 3.8-3.9 1.1 0 2.2.2 2.2.2v2.5h-1.2c-1.2 0-1.6.8-1.6 1.6V12h2.7l-.4 2.9h-2.3v7A10 10 0 0 0 22 12z"/></symbol>

  <!-- ===== Service icons ===== -->
  <symbol id="i-bolt" viewBox="0 0 24 24" fill="none" stroke="currentColor" stroke-width="2" stroke-linecap="round" stroke-linejoin="round"><path d="M13 2L4 14h6l-1 8 9-12h-6z"/></symbol>
  <symbol id="i-droplet" viewBox="0 0 24 24" fill="none" stroke="currentColor" stroke-width="2" stroke-linecap="round" stroke-linejoin="round"><path d="M12 2.7s7 7.3 7 12a7 7 0 0 1-14 0c0-4.7 7-12 7-12z"/><path d="M9 14a3 3 0 0 0 3 3"/></symbol>
  <symbol id="i-flame" viewBox="0 0 24 24" fill="none" stroke="currentColor" stroke-width="2" stroke-linecap="round" stroke-linejoin="round"><path d="M12 2s5 4 5 9a5 5 0 0 1-10 0c0-1.6.7-2.9 1.4-3.8C9 9 9.5 10 10.5 10c.8 0 1-.7 1-1.5 0-2.5.5-4.5.5-6.5z"/></symbol>
  <symbol id="i-wrench" viewBox="0 0 24 24" fill="none" stroke="currentColor" stroke-width="2" stroke-linecap="round" stroke-linejoin="round"><path d="M14.7 6.3a4 4 0 0 0 5.3 5.2L13 18.5a2.8 2.8 0 0 1-4-4l6.7-6.7z"/><path d="M14.7 6.3l3-3a4 4 0 0 0-3.6 1"/></symbol>
  <symbol id="i-hammer" viewBox="0 0 24 24" fill="none" stroke="currentColor" stroke-width="2" stroke-linecap="round" stroke-linejoin="round"><path d="M14 6l4 4M11.5 8.5L4.5 15.5a2.1 2.1 0 0 0 3 3l7-7"/><path d="M14.5 5.5l1.8-1.8a2 2 0 0 1 2.8 0l1.2 1.2a2 2 0 0 1 0 2.8l-1.8 1.8z"/></symbol>
  <symbol id="i-grid" viewBox="0 0 24 24" fill="none" stroke="currentColor" stroke-width="2" stroke-linecap="round" stroke-linejoin="round"><rect x="3.5" y="3.5" width="17" height="17" rx="2"/><path d="M3.5 9.5h17M3.5 14.5h17M9 3.5v17M14.5 3.5v17"/></symbol>
  <symbol id="i-roller" viewBox="0 0 24 24" fill="none" stroke="currentColor" stroke-width="2" stroke-linecap="round" stroke-linejoin="round"><rect x="4" y="3.5" width="13" height="6" rx="1.5"/><path d="M17 6.5h2.5a1.5 1.5 0 0 1 1.5 1.5v2a1.5 1.5 0 0 1-1.5 1.5H12a1.5 1.5 0 0 0-1.5 1.5V15"/><rect x="8.5" y="15" width="4" height="6" rx="1"/></symbol>
  <symbol id="i-waterproof" viewBox="0 0 24 24" fill="none" stroke="currentColor" stroke-width="2" stroke-linecap="round" stroke-linejoin="round"><path d="M3 11a9 9 0 0 1 18 0z"/><path d="M12 11v8a2.5 2.5 0 0 0 5 0"/></symbol>
  <symbol id="i-door" viewBox="0 0 24 24" fill="none" stroke="currentColor" stroke-width="2" stroke-linecap="round" stroke-linejoin="round"><path d="M5 21V4a1 1 0 0 1 1-1h12a1 1 0 0 1 1 1v17"/><path d="M3 21h18"/><circle cx="15" cy="12" r="1" fill="currentColor" stroke="none"/></symbol>
  <symbol id="i-gate" viewBox="0 0 24 24" fill="none" stroke="currentColor" stroke-width="2" stroke-linecap="round" stroke-linejoin="round"><path d="M3 20V8l9-4 9 4v12"/><path d="M3 20h18M7 20v-8M12 20v-9M17 20v-8M3 12h18M3 16h18"/></symbol>
  <symbol id="i-home" viewBox="0 0 24 24" fill="none" stroke="currentColor" stroke-width="2" stroke-linecap="round" stroke-linejoin="round"><path d="M3 11l9-7 9 7"/><path d="M5 10v10h14V10"/><path d="M9.5 20v-5h5v5"/></symbol>
  <symbol id="i-fence" viewBox="0 0 24 24" fill="none" stroke="currentColor" stroke-width="2" stroke-linecap="round" stroke-linejoin="round"><path d="M6 21V6l2-2 2 2v15M14 21V6l2-2 2 2v15"/><path d="M3 10h18M3 15h18"/></symbol>
  <symbol id="i-window" viewBox="0 0 24 24" fill="none" stroke="currentColor" stroke-width="2" stroke-linecap="round" stroke-linejoin="round"><rect x="4" y="3.5" width="16" height="17" rx="1.5"/><path d="M12 3.5v17M4 12h16"/></symbol>
  <symbol id="i-washer" viewBox="0 0 24 24" fill="none" stroke="currentColor" stroke-width="2" stroke-linecap="round" stroke-linejoin="round"><rect x="5" y="2.5" width="14" height="19" rx="2"/><circle cx="12" cy="14" r="4.5"/><path d="M9.2 14a2.8 2.8 0 0 1 5.6 0"/><circle cx="8.5" cy="6" r=".6" fill="currentColor" stroke="none"/><circle cx="11" cy="6" r=".6" fill="currentColor" stroke="none"/></symbol>
  <symbol id="i-certificate" viewBox="0 0 24 24" fill="none" stroke="currentColor" stroke-width="2" stroke-linecap="round" stroke-linejoin="round"><rect x="3.5" y="3.5" width="17" height="13" rx="2"/><path d="M7 7.5h10M7 11h6"/><circle cx="12" cy="18.5" r="2.5"/><path d="M10.5 20.5L9.5 23l2.5-1.3L14.5 23l-1-2.5"/></symbol>
  <symbol id="i-layers" viewBox="0 0 24 24" fill="none" stroke="currentColor" stroke-width="2" stroke-linecap="round" stroke-linejoin="round"><path d="M12 3l9 5-9 5-9-5z"/><path d="M3 12l9 5 9-5M3 16l9 5 9-5"/></symbol>
  <symbol id="i-wind" viewBox="0 0 24 24" fill="none" stroke="currentColor" stroke-width="2" stroke-linecap="round" stroke-linejoin="round"><path d="M3 8h11a3 3 0 1 0-3-3"/><path d="M3 12h15a3 3 0 1 1-3 3"/><path d="M3 16h9a2.5 2.5 0 1 1-2.5 2.5"/></symbol>
  <symbol id="i-tools" viewBox="0 0 24 24" fill="none" stroke="currentColor" stroke-width="1.6" stroke-linecap="round" stroke-linejoin="round"><path d="M14.7 6.3a4 4 0 0 0 5.3 5.2l-2 2-7-7 2-2a4 4 0 0 0 1.7 1.8z"/><path d="M5.5 5.5l4 4M4 7l3-3 2 1-2 2zM14 14l5 5a2 2 0 0 1-3 3l-5-5z"/></symbol>
</svg>
