<svg xmlns="http://www.w3.org/2000/svg" viewBox="0 0 64 64">
  <defs>
    <linearGradient id="o" x1="0" y1="0" x2="0" y2="1"><stop offset="0" stop-color="#FBB03B"/><stop offset="1" stop-color="#E07B00"/></linearGradient>
  </defs>
  <rect width="64" height="64" rx="14" fill="#16191F"/>
  <path d="M32 9l17 6.4v11.7c0 11.7-7.4 19.2-17 23.4-9.6-4.2-17-11.7-17-23.4V15.4z" fill="url(#o)"/>
  <path d="M32 13.5l12.8 4.8v9.1c0 8.9-5.5 14.9-12.8 18.5-7.3-3.6-12.8-9.6-12.8-18.5v-9.1z" fill="#16191F"/>
  <path d="M23 27l9-6.6L41 27v2.2l-9-6.2-9 6.2z" fill="url(#o)"/>
  <g stroke="#E9EDF2" stroke-width="2.8" stroke-linecap="round" fill="none"><path d="M26 42l8.5-8.5"/><path d="M38 42l-8.5-8.5"/></g>
</svg>
